<svg width="28" height="29" viewBox="0 0 28 29" fill="none" xmlns="http://www.w3.org/2000/svg">
<line x1="1.87082" y1="27.541" x2="27.0608" y2="27.541" stroke="white" stroke-width="1.81" stroke-linecap="round"/>
<path d="M2.92773 14.6127L12.0601 19.1962C13.6118 19.9634 15.3206 19.9634 16.8723 19.1962L26.0047 14.6127M2.92773 19.2908L12.0601 23.8742C13.6118 24.6414 15.3206 24.6414 16.8723 23.8742L26.0047 19.2908M24.071 5.23574L16.5269 1.81921C15.1883 1.21488 13.7361 1.21488 12.3975 1.81921L4.8534 5.23574C4.39558 5.44469 3.99844 5.8375 3.71729 6.35948C3.43615 6.88146 3.28505 7.50662 3.28505 8.14769C3.28505 8.78877 3.43615 9.41379 3.71729 9.93577C3.99844 10.4578 4.39558 10.8507 4.8534 11.0596L12.3022 14.4341C13.6919 15.0648 15.2007 15.0648 16.5904 14.4341L24.0392 11.0596C24.4982 10.8551 24.8975 10.466 25.1816 9.94668C25.4656 9.42738 25.6201 8.8038 25.6236 8.16271C25.6271 7.52161 25.4795 6.89493 25.2011 6.37026C24.9228 5.84559 24.5278 5.44902 24.071 5.23574Z" stroke="#FFFDF9" stroke-width="2.05756" stroke-linecap="round" stroke-linejoin="round"/>
</svg>
