<svg width="27" height="26" viewBox="0 0 27 26" fill="none" xmlns="http://www.w3.org/2000/svg">
<path d="M20.699 5.76041C20.9634 5.87193 21.2218 5.99709 21.4733 6.13534C21.5769 6.19063 21.6775 6.25146 21.7746 6.31755C24.01 7.71908 24.5777 10.4135 24.6478 12.7261C24.6478 13.0765 24.6478 13.4268 24.6478 13.7772V24.3377L20.0928 21.7063H17.3212C16.391 21.8171 15.455 21.8721 14.5182 21.871C13.5148 21.8793 12.5119 21.8243 11.5154 21.7063C9.03823 21.405 6.60998 20.6272 5.36612 18.8332M20.1838 5.06315C19.6506 4.33026 18.9551 3.73066 18.1517 3.31123C16.6527 2.55602 15.0186 2.10583 13.3443 1.98678C12.549 1.90969 11.6696 1.86068 10.7551 1.85718C8.5267 1.85718 6.11256 2.10244 4.17844 3.1641C4.0748 3.21939 3.97409 3.28021 3.87699 3.34631C1.64154 4.74784 1.07403 7.4423 1.00395 9.75483C1.00395 10.1052 0.986328 10.4556 0.986328 10.806V21.37L5.54131 18.7386C5.54131 18.7386 10.219 18.8998 11.13 18.9033C12.1334 18.9116 13.1362 18.8566 14.1327 18.7386C17.3562 18.3497 20.4782 17.1444 21.0738 13.9594C21.3032 12.724 21.4205 11.4703 21.4242 10.2138C21.4242 8.31819 21.1159 6.3876 20.1838 5.06315Z" stroke="white" stroke-width="1.75192" stroke-linecap="round" stroke-linejoin="round"/>
</svg>
