<svg width="36" height="35" viewBox="0 0 36 35" fill="none" xmlns="http://www.w3.org/2000/svg">
<rect width="35.1528" height="35" rx="17.3011" fill="#FD5D69"/>
<path d="M18.7217 25.9749L18.2592 26H16.8955L16.4331 25.9749H16.356L16.107 25.9561H15.9706L15.7542 25.9342L15.4577 25.8997H15.3836C12.7066 25.5487 10.0533 24.3608 9.40704 21.1607C9.12363 19.8434 9.00306 18.4927 9.04834 17.1426C9.01328 15.8605 9.12578 14.5786 9.38334 13.3251L9.40407 13.3032C9.75686 11.7204 10.4387 10.263 11.7075 9.38223C13.3262 8.26017 15.3421 8.00003 17.1979 8.00003H17.9539C19.8127 7.99689 21.8286 8.26017 23.4443 9.38223C24.7131 10.263 25.395 11.736 25.7507 13.3032L25.7685 13.3251C26.026 14.5786 26.1385 15.8605 26.1035 17.1426C26.1502 18.4928 26.0296 19.8436 25.7448 21.1607C25.1044 24.3608 22.4363 25.5393 19.7682 25.8997H19.697L19.4006 25.9342L19.1812 25.9561H19.0478L18.7988 25.9749H18.7217Z" stroke="#FFFDF9" stroke-width="1.53215" stroke-linejoin="round"/>
</svg>
