<svg width="36" height="35" viewBox="0 0 36 35" fill="none" xmlns="http://www.w3.org/2000/svg">
<rect width="35.1966" height="35" rx="17.3011" fill="#FD5D69"/>
<path d="M15.6815 17.2862H6.28622M8.69823 19.8046L6.84037 18.4027C6.66777 18.2719 6.52783 18.1032 6.43153 17.9098C6.33523 17.7164 6.28516 17.5035 6.28516 17.2877C6.28516 17.0718 6.33523 16.859 6.43153 16.6655C6.52783 16.4721 6.66777 16.3034 6.84037 16.1726L8.69823 14.7678M21.8033 11.1329V23.4396M12.2673 21.1924C13.9902 27.5684 18.8515 27.063 18.8515 27.063C18.8515 27.063 23.7329 27.5684 25.4357 21.1924C26.1047 18.6308 26.1047 15.9417 25.4357 13.38C23.7272 7.00401 18.8515 7.50947 18.8515 7.50947C18.8515 7.50947 13.9701 7.00401 12.2673 13.38" stroke="#FFFDF9" stroke-width="1.42768" stroke-linecap="round" stroke-linejoin="round"/>
</svg>
