<svg width="35" height="35" viewBox="0 0 35 35" fill="none" xmlns="http://www.w3.org/2000/svg">
<rect width="35" height="35" rx="17.3011" fill="#FD5D69"/>
<path d="M18.1956 25.3689C18.168 25.6118 18.0564 25.8356 17.8819 25.998C17.7075 26.1603 17.4823 26.25 17.249 26.25C17.0157 26.25 16.7905 26.1603 16.616 25.998C16.4416 25.8356 16.33 25.6118 16.3024 25.3689M11.4689 19.3986C11.8844 18.2963 12.0396 17.1051 11.9215 15.9264C11.8705 15.4424 11.8813 14.9534 11.9536 14.4724C12.1738 13.0976 12.8519 11.8491 13.8672 10.9487C14.8825 10.0482 16.1694 9.5541 17.4994 9.5541C18.8293 9.5541 20.1162 10.0482 21.1315 10.9487C22.1468 11.8491 22.8248 13.0976 23.0451 14.4724C23.1174 14.9534 23.1282 15.4424 23.0772 15.9264C22.9618 17.1051 23.117 18.2956 23.5298 19.3986C23.6982 19.8154 23.7717 20.2676 23.7444 20.7193C23.7172 21.1711 23.5898 21.6099 23.3726 22.0011C23.1553 22.3923 22.8541 22.725 22.4928 22.973C22.1315 23.2209 21.72 23.3771 21.2911 23.4294C18.772 23.725 16.2293 23.725 13.7102 23.4294C13.2813 23.377 12.8699 23.2206 12.5086 22.9728C12.1473 22.7249 11.846 22.3922 11.6285 22.0012C11.411 21.6101 11.2834 21.1713 11.2557 20.7196C11.228 20.2679 11.301 19.8156 11.4689 19.3986ZM18.5008 8.54699C18.5008 9.12522 18.0536 9.59397 17.502 9.59397C16.9504 9.59397 16.5032 9.12522 16.5032 8.54699C16.5032 7.96875 16.9504 7.5 17.502 7.5C18.0536 7.5 18.5008 7.96875 18.5008 8.54699Z" stroke="#FFFDF9" stroke-width="1.42768" stroke-linecap="round" stroke-linejoin="round"/>
</svg>
