<svg width="11" height="10" viewBox="0 0 11 10" fill="none" xmlns="http://www.w3.org/2000/svg">
<path d="M7.36988 1.88234L6.33638 0.496022C6.22043 0.341573 6.07191 0.216583 5.9023 0.130623C5.73268 0.0446633 5.54639 0 5.35759 0C5.16879 0 4.9825 0.0446633 4.81288 0.130623C4.64327 0.216583 4.49485 0.341573 4.3789 0.496022L3.3454 1.88234C3.20022 2.07767 3.00454 2.22627 2.78112 2.31088L1.19161 2.90441C1.01014 2.96855 0.845497 3.07544 0.710589 3.21667C0.575681 3.35789 0.474154 3.5296 0.414065 3.71834C0.353976 3.90708 0.336892 4.10766 0.364206 4.30439C0.391521 4.50111 0.462514 4.68858 0.571511 4.8521L1.52235 6.30271C1.65307 6.50687 1.72479 6.74555 1.72905 6.99056L1.78274 8.74113C1.78672 8.93938 1.83495 9.13401 1.92354 9.30976C2.01212 9.48551 2.13871 9.63759 2.29343 9.7542C2.44815 9.87081 2.62673 9.94876 2.81533 9.98192C3.00393 10.0151 3.19737 10.0025 3.38052 9.9453L5.00525 9.45681C5.23268 9.38782 5.47433 9.38782 5.70175 9.45681L7.32648 9.9453C7.50964 10.0025 7.70308 10.0151 7.89168 9.98192C8.08027 9.94876 8.25885 9.87081 8.41357 9.7542C8.56829 9.63759 8.69489 9.48551 8.78347 9.30976C8.87206 9.13401 8.92029 8.93938 8.92426 8.74113L8.97796 6.99056C8.98356 6.74578 9.05517 6.50748 9.18466 6.30271L10.1355 4.8521C10.2426 4.68866 10.3122 4.50203 10.3391 4.30643C10.3659 4.11083 10.3494 3.91149 10.2905 3.72357C10.2317 3.53565 10.1322 3.36413 9.99965 3.22216C9.8671 3.08019 9.70496 2.97151 9.52569 2.90441L7.93417 2.31088C7.71074 2.22627 7.51507 2.07767 7.36988 1.88234Z" fill="#FFFDF9"/>
</svg>
