<svg width="12" height="12" viewBox="0 0 12 12" fill="none" xmlns="http://www.w3.org/2000/svg">
<path d="M7.90413 1.64215C8.51375 0.673042 9.69488 0.910756 10.3837 1.62858C11.0726 2.34641 11.1747 3.41936 10.4569 4.10823M10.4569 4.10823C10.8973 5.28036 10.8973 6.57249 10.4569 7.74462C9.32912 10.7135 6.11642 10.4788 6.11642 10.4788C6.11642 10.4788 2.90372 10.7135 1.77593 7.74462C1.33665 6.57229 1.33664 5.28055 1.77592 4.10822M10.4569 4.10823C9.32912 1.13938 6.11642 1.37561 6.11642 1.37561C6.11642 1.37561 2.90372 1.13937 1.77592 4.10822M4.32259 1.64423C3.56057 0.825418 2.48763 0.855918 1.80028 1.57375C1.11294 2.29157 1.05809 3.41935 1.77592 4.10822M8.7914 9.7972L9.71164 11M3.44262 9.79792L2.52117 11M6.1164 3.84915V5.13849C6.11656 5.38395 6.17315 5.62611 6.28176 5.84623C6.39036 6.06635 6.54807 6.25857 6.74277 6.40804L8.03367 7.39714" stroke="#EC888D" stroke-width="0.762026" stroke-linecap="round" stroke-linejoin="round"/>
</svg>
