<svg width="35" height="35" viewBox="0 0 35 35" fill="none" xmlns="http://www.w3.org/2000/svg">
<rect width="35" height="35" rx="17.3011" fill="#FD5D69"/>
<path d="M15.7868 22.0302C18.3977 24.0645 21.2123 24.7049 22.8024 23.3896C24.8809 21.6719 24.0785 17.2672 21.0062 13.5496L20.4491 12.9729M18.2775 10.9779C15.7917 9.19392 13.1881 8.68842 11.6814 9.93254C9.60297 11.6503 10.4078 16.055 13.4777 19.7726M21.0283 11.984C23.1754 11.7877 24.8244 12.2539 25.3447 13.3876C26.2403 15.3507 23.4134 18.5628 19.0283 20.5677C14.6432 22.5725 10.3637 22.6069 9.45818 20.6462C8.55269 18.6856 11.3894 15.471 15.7745 13.4661C16.4961 13.1352 17.2378 12.85 17.9953 12.6122M14.5721 25.527C14.7144 25.5589 14.8518 25.5884 14.9843 25.6129C15.6869 25.7522 16.4035 25.8082 17.1192 25.7797C17.1192 25.7797 23.3914 26.2411 25.5925 20.4425C26.4513 18.1541 26.4513 15.6319 25.5925 13.3435C23.384 7.54737 17.1192 8.0087 17.1192 8.0087C17.1192 8.0087 10.8471 7.54737 8.64594 13.3435C7.78469 15.6315 7.78469 18.1545 8.64594 20.4425C9.21961 22.0359 10.2941 23.4005 11.7084 24.332C11.9072 24.462 12.1084 24.5774 12.3121 24.6878M19.3277 12.9704C19.5586 12.9837 19.7879 12.9247 19.9836 12.8016C20.1793 12.6784 20.3318 12.4972 20.4197 12.2833C20.5302 11.9882 20.5302 11.6631 20.4197 11.368C20.3207 11.1626 20.1657 10.9892 19.9725 10.8679C19.7793 10.7465 19.5558 10.6822 19.3277 10.6822C19.0996 10.6822 18.8761 10.7465 18.683 10.8679C18.4898 10.9892 18.3348 11.1626 18.2358 11.368C18.1253 11.6631 18.1253 11.9882 18.2358 12.2833C18.324 12.497 18.4765 12.678 18.6722 12.8011C18.8678 12.9242 19.0969 12.9834 19.3277 12.9704ZM13.4875 25.9982C13.7183 26.0111 13.9474 25.9519 14.143 25.8287C14.3387 25.7056 14.4912 25.5247 14.5795 25.3111C14.6899 25.016 14.6899 24.6909 14.5795 24.3958C14.4804 24.1903 14.3254 24.0169 14.1322 23.8956C13.9391 23.7743 13.7156 23.7099 13.4875 23.7099C13.2594 23.7099 13.0359 23.7743 12.8427 23.8956C12.6496 24.0169 12.4945 24.1903 12.3955 24.3958C12.285 24.6909 12.285 25.016 12.3955 25.3111C12.4834 25.5249 12.6359 25.7061 12.8316 25.8292C13.0273 25.9524 13.2566 26.0115 13.4875 25.9982Z" stroke="#FFFDF9" stroke-width="1.22694" stroke-linecap="round" stroke-linejoin="round"/>
</svg>
