<svg 
  width="24" 
  height="17" 
  viewBox="0 0 24 17" 
  fill="none" 
  xmlns="http://www.w3.org/2000/svg">
  <path 
    d="M22.8691 8.8438H10.8604V14.1785C10.8602 14.4887 10.7734 14.7928 10.6098 15.0563C10.4462 15.3199 10.2122 15.5325 9.9343 15.6703C9.65639 15.8081 9.34555 15.8656 9.03673 15.8363C8.72791 15.807 8.43347 15.6921 8.18642 15.5045L2.71013 11.3454C2.32374 11.0528 2.01039 10.6746 1.79465 10.2406C1.5789 9.80652 1.46661 9.3285 1.46661 8.8438C1.46661 8.35911 1.5789 7.88098 1.79465 7.44695C2.01039 7.01291 2.32374 6.63471 2.71013 6.34208L8.18642 2.18302C8.43347 1.99541 8.72791 1.88049 9.03673 1.8512C9.34555 1.82191 9.65639 1.87935 9.9343 2.01716C10.2122 2.15497 10.4462 2.3676 10.6098 2.63115C10.7734 2.89471 10.8602 3.19877 10.8604 3.50898V4.64492" 
    stroke="#FD5D69" 
    stroke-width="2.15865" 
    stroke-linecap="round" 
    stroke-linejoin="round"/>
</svg>