<svg width="26" height="27" viewBox="0 0 26 27" fill="none" xmlns="http://www.w3.org/2000/svg">
<path d="M1.01953 15.163L10.1519 19.7465C11.7036 20.5138 13.4124 20.5138 14.9641 19.7465L24.0965 15.163M1.01953 19.8411L10.1519 24.4245C11.7036 25.1917 13.4124 25.1917 14.9641 24.4245L24.0965 19.8411M22.1628 5.78606L14.6187 2.36954C13.2801 1.76521 11.8279 1.76521 10.4893 2.36954L2.9452 5.78606C2.48737 5.99501 2.09023 6.38782 1.80909 6.9098C1.52795 7.43179 1.37684 8.05694 1.37684 8.69801C1.37684 9.33909 1.52795 9.96412 1.80909 10.4861C2.09023 11.0081 2.48737 11.401 2.9452 11.61L10.394 14.9844C11.7837 15.6151 13.2925 15.6151 14.6822 14.9844L22.131 11.61C22.59 11.4054 22.9893 11.0163 23.2734 10.497C23.5574 9.97771 23.7119 9.35413 23.7154 8.71303C23.7189 8.07193 23.5713 7.44526 23.2929 6.92058C23.0146 6.39591 22.6196 5.99935 22.1628 5.78606Z" stroke="#FFFDF9" stroke-width="2.05756" stroke-linecap="round" stroke-linejoin="round"/>
</svg>
