<svg width="35" height="35" viewBox="0 0 35 35" fill="none" xmlns="http://www.w3.org/2000/svg">
<rect width="35" height="35" rx="17.3011" fill="#FD5D69"/>
<path d="M18.6875 26.9406C18.6875 25.6492 18.6875 23.1525 18.6875 21.6325H21.0625C21.1767 21.6325 21.2861 21.5871 21.3669 21.5064C21.4476 21.4257 21.493 21.3162 21.493 21.202V18.5717C21.493 18.4575 21.4476 18.348 21.3669 18.2673C21.2861 18.1866 21.1767 18.1412 21.0625 18.1412H18.6875C18.6875 17.1141 18.6875 17.2358 18.6875 16.5945C18.6883 16.3171 18.7991 16.0513 18.9955 15.8554C19.1919 15.6595 19.4581 15.5495 19.7355 15.5495H21.4781V12.8331C21.4773 12.6297 21.396 12.4349 21.2519 12.2913C21.1078 12.1478 20.9126 12.0672 20.7092 12.0672H18.5331C18.0758 12.0672 17.623 12.1573 17.2005 12.3323C16.778 12.5073 16.3941 12.7638 16.0707 13.0871C15.7474 13.4105 15.4909 13.7944 15.3159 14.2169C15.1409 14.6394 15.0508 15.0922 15.0508 15.5495C15.0508 15.5495 15.0122 16.0542 14.9885 18.1412H12.6906C12.5631 18.1412 12.4408 18.1919 12.3506 18.2821C12.2604 18.3723 12.2097 18.4946 12.2097 18.6222V21.1515C12.2093 21.2148 12.2215 21.2775 12.2455 21.3361C12.2695 21.3946 12.3049 21.4478 12.3497 21.4925C12.3944 21.5372 12.4476 21.5726 12.5061 21.5967C12.5646 21.6207 12.6274 21.6329 12.6906 21.6325H14.9617C14.9617 23.1614 14.9617 25.3583 15.0033 26.712M15.0092 26.6853C12.9937 26.1377 11.2148 24.9411 9.94771 23.2807C8.68067 21.6203 7.99614 19.5886 8.00002 17.5C8.00002 14.9804 9.0009 12.5641 10.7825 10.7825C12.5641 9.00089 14.9805 8 17.5 8C20.0196 8 22.4359 9.00089 24.2175 10.7825C25.9991 12.5641 27 14.9804 27 17.5C27.0015 19.815 26.1577 22.0508 24.6271 23.7875C23.0964 25.5243 20.9843 26.6423 18.6875 26.9317" stroke="#FFFDF9" stroke-width="1.43" stroke-linecap="round" stroke-linejoin="round"/>
</svg>
