<svg width="29" height="28" viewBox="0 0 29 28" fill="none" xmlns="http://www.w3.org/2000/svg">
<rect x="0.5" width="28" height="28" rx="13.8409" fill="#FD5D69"/>
<path d="M14.5807 8.91296C14.5807 8.91296 14.2336 9.2015 13.8744 9.71549C13.4416 10.3347 12.9914 11.2813 13.11 12.4447" fill="#FD5D69"/>
<path d="M14.5807 8.91296C14.5807 8.91296 14.2336 9.2015 13.8744 9.71549M13.11 12.4447C12.9914 11.2813 13.4416 10.3347 13.8744 9.71549M13.8744 9.71549C14.2911 9.12125 14.8084 8.66124 15.3375 8.31127M15.3375 8.31127C16.269 7.6951 17.237 7.42 17.7567 7.35388C18.3642 7.32972 18.9703 7.42907 19.5383 7.64587C20.1063 7.86268 20.6245 8.19243 21.0614 8.61522C22.9509 10.4669 23.2283 13.9583 21.5205 16.0193C19.8126 18.0803 17.0125 18.9936 15.2896 21.0899C15.0104 21.4234 14.7724 21.7893 14.5807 22.1797C14.3898 21.7894 14.1527 21.4235 13.8744 21.0899C12.1489 18.9936 9.36623 18.1005 7.64072 16.0193C5.91521 13.9381 6.21044 10.4694 8.09993 8.61522C9.11218 7.40435 11.4273 5.83781 15.3375 8.31127Z" stroke="#FFFDF9" stroke-linecap="round" stroke-linejoin="round"/>
</svg>
