<svg width="25" height="18" viewBox="0 0 25 18" fill="none" xmlns="http://www.w3.org/2000/svg">
<path d="M17.9824 9.00005H9.01486V14.3348C9.01471 14.645 8.94992 14.949 8.82775 15.2126C8.70558 15.4762 8.53085 15.6888 8.32332 15.8266C8.11579 15.9644 7.88367 16.0218 7.65306 15.9925C7.42244 15.9633 7.20257 15.8483 7.01809 15.6607L2.92866 11.5017C2.64012 11.209 2.40613 10.8308 2.24502 10.3968C2.08391 9.96277 2.00006 9.48475 2.00006 9.00005C2.00006 8.51536 2.08391 8.03723 2.24502 7.6032C2.40613 7.16916 2.64012 6.79096 2.92866 6.49833L7.01809 2.33927C7.20257 2.15166 7.42244 2.03674 7.65306 2.00745C7.88367 1.97816 8.11579 2.0356 8.32332 2.17341C8.53085 2.31122 8.70558 2.52385 8.82775 2.7874C8.94992 3.05096 9.01471 3.35502 9.01486 3.66523V4.80117" stroke="#FD5D69" stroke-width="2.15865" stroke-linecap="round" stroke-linejoin="round"/>
</svg>
