<svg width="35" height="35" viewBox="0 0 35 35" fill="none" xmlns="http://www.w3.org/2000/svg">
<rect width="35" height="35" rx="17.3011" fill="#FD5D69"/>
<path d="M10.6558 23.5715V16.9186C10.6611 15.0853 11.3917 13.3286 12.688 12.0322C13.9843 10.7359 15.741 10.0053 17.5743 10C19.4076 10.0053 21.1643 10.7359 22.4607 12.0322C23.757 13.3286 24.4876 15.0853 24.4929 16.9186V23.5601M14.502 14.717C14.8142 14.1785 15.2622 13.7314 15.8014 13.4202C16.3405 13.1091 16.9519 12.9448 17.5743 12.9438C18.1972 12.9449 18.8089 13.1091 19.3485 13.4202C19.888 13.7314 20.3367 14.1785 20.6496 14.717M27.1569 17.8893C26.6401 17.0641 25.5722 16.8643 24.6528 16.8386H24.4929V23.5887C25.1662 23.6251 25.8374 23.4854 26.4402 23.1832C27.2112 22.7092 27.5139 21.7555 27.6053 20.9218C27.6368 20.6373 27.653 20.3514 27.6538 20.0652C27.6951 19.3077 27.523 18.5538 27.1569 17.8893ZM8.0003 17.8893C8.51997 17.0641 9.58789 16.8643 10.5073 16.8386H10.6643V23.5887C9.99194 23.6249 9.32174 23.4852 8.71985 23.1832C7.9489 22.7092 7.64621 21.7555 7.55484 20.9218C7.5233 20.6373 7.50712 20.3514 7.50632 20.0652C7.46396 19.308 7.63511 18.554 8.0003 17.8893Z" stroke="#FFFDF9" stroke-width="1.42768" stroke-linecap="round" stroke-linejoin="round"/>
</svg>
