<svg width="27" height="24" viewBox="0 0 27 24" fill="none" xmlns="http://www.w3.org/2000/svg">
<path d="M22.5849 8.02297V18.6679C22.5849 19.8169 22.1285 20.9187 21.3161 21.7311C20.5037 22.5435 19.4018 23 18.2528 23H16.4081V18.9531C16.4081 18.1776 16.1 17.4338 15.5517 16.8854C15.0033 16.337 14.2595 16.029 13.484 16.029C12.7085 16.029 11.9647 16.337 11.4163 16.8854C10.8679 17.4338 10.5598 18.1776 10.5598 18.9531V23H8.71509C7.56616 23 6.46428 22.5435 5.65186 21.7311C4.83944 20.9187 4.38303 19.8169 4.38303 18.6679V8.023M26.0578 11.8233L17.9785 2.98227C17.4082 2.35772 16.7139 1.85883 15.9401 1.51754C15.1662 1.17624 14.3298 1 13.484 1C12.6382 1 11.8017 1.17624 11.0279 1.51754C10.254 1.85883 9.55978 2.35772 8.98946 2.98227L0.910156 11.8233" stroke="#FFFDF9" stroke-width="1.80503" stroke-linecap="round" stroke-linejoin="round"/>
</svg>
