<svg width="22" height="30" viewBox="0 0 22 30" fill="none" xmlns="http://www.w3.org/2000/svg">
<path d="M1.35028 18.7685C2.01502 17.1225 2.2634 15.3437 2.07433 13.5835C1.99282 12.8607 2.01011 12.1304 2.12574 11.4121C2.47816 9.35903 3.56299 7.49466 5.18749 6.15C6.70964 4.89005 8.61331 4.16284 10.5977 4.07621C9.91145 3.90061 9.4051 3.2899 9.4051 2.5635C9.4051 1.7 10.1206 1 11.0032 1C11.8858 1 12.6013 1.7 12.6013 2.5635C12.6013 3.29035 12.0944 3.90135 11.4075 4.07653C13.3893 4.16462 15.2901 4.89159 16.8104 6.15C18.4349 7.49466 19.5197 9.35903 19.8721 11.4121C19.9878 12.1304 20.0051 12.8607 19.9235 13.5835C19.7389 15.3436 19.9872 17.1214 20.6477 18.7685C20.9172 19.3909 21.0348 20.0663 20.9911 20.7409C20.9475 21.4155 20.7438 22.0708 20.3961 22.655C20.0485 23.2391 19.5665 23.7361 18.9885 24.1063C18.4104 24.4765 17.7521 24.7099 17.0658 24.7878C13.0352 25.2294 8.96693 25.2294 4.93639 24.7878C4.25011 24.7096 3.59187 24.4762 3.01376 24.106C2.43565 23.7358 1.95354 23.2391 1.60561 22.6551C1.25768 22.0711 1.05349 21.4158 1.00917 20.7413C0.964849 20.0667 1.08163 19.3913 1.35028 18.7685Z" fill="#FD5D69"/>
<path d="M10.5977 4.07621C8.61331 4.16284 6.70964 4.89005 5.18749 6.15C3.56299 7.49466 2.47816 9.35903 2.12574 11.4121C2.01011 12.1304 1.99282 12.8607 2.07433 13.5835C2.2634 15.3437 2.01502 17.1225 1.35028 18.7685C1.08163 19.3913 0.964849 20.0667 1.00917 20.7413C1.05349 21.4158 1.25768 22.0711 1.60561 22.6551C1.95354 23.2391 2.43565 23.7358 3.01376 24.106C3.59187 24.4762 4.25011 24.7096 4.93639 24.7878C8.96693 25.2294 13.0352 25.2294 17.0658 24.7878C17.7521 24.7099 18.4104 24.4765 18.9885 24.1063C19.5665 23.7361 20.0485 23.2391 20.3961 22.655C20.7438 22.0708 20.9475 21.4155 20.9911 20.7409C21.0348 20.0663 20.9172 19.3909 20.6477 18.7685C19.9872 17.1214 19.7389 15.3436 19.9235 13.5835C20.0051 12.8607 19.9878 12.1304 19.8721 11.4121C19.5197 9.35903 18.4349 7.49466 16.8104 6.15C15.2901 4.89159 13.3893 4.16462 11.4075 4.07653M10.5977 4.07621C10.7311 4.07039 10.8649 4.06746 10.999 4.06746C11.1355 4.06746 11.2717 4.07049 11.4075 4.07653M10.5977 4.07621C10.7272 4.10935 10.8631 4.127 11.0032 4.127C11.1429 4.127 11.2784 4.10947 11.4075 4.07653M10.5977 4.07621C9.91145 3.90061 9.4051 3.2899 9.4051 2.5635C9.4051 1.7 10.1206 1 11.0032 1C11.8858 1 12.6013 1.7 12.6013 2.5635C12.6013 3.29035 12.0944 3.90135 11.4075 4.07653M12.1129 27.6843C12.0687 28.0469 11.8902 28.3811 11.6111 28.6236C11.332 28.8661 10.9716 29 10.5983 29C10.225 29 9.86475 28.8661 9.58562 28.6236C9.30649 28.3811 9.12795 28.0469 9.08379 27.6843" stroke="#FD5D69" stroke-width="1.72584" stroke-linecap="round" stroke-linejoin="round"/>
</svg>
