<svg width="19" height="19" viewBox="0 0 19 19" fill="none" xmlns="http://www.w3.org/2000/svg">
<path d="M13.3348 3.57645L11.3712 0.942443C11.1508 0.648989 10.8687 0.411507 10.5464 0.248184C10.2241 0.0848604 9.87017 0 9.51145 0C9.15274 0 8.79877 0.0848604 8.47651 0.248184C8.15425 0.411507 7.87225 0.648989 7.65193 0.942443L5.68829 3.57645C5.41245 3.94757 5.04067 4.22992 4.61615 4.39068L1.59609 5.51839C1.25129 5.64024 0.938475 5.84334 0.682151 6.11166C0.425826 6.37999 0.232923 6.70624 0.118754 7.06484C0.00458491 7.42344 -0.0278734 7.80456 0.0240235 8.17834C0.0759204 8.55211 0.210808 8.90831 0.417902 9.21898L2.22449 11.9751C2.47287 12.3631 2.60913 12.8166 2.61722 13.2821L2.71924 16.6081C2.7268 16.9848 2.81844 17.3546 2.98675 17.6885C3.15506 18.0225 3.39559 18.3114 3.68956 18.533C3.98352 18.7545 4.32282 18.9027 4.68116 18.9656C5.03949 19.0286 5.40703 19.0048 5.75503 18.8961L8.84201 17.9679C9.27412 17.8369 9.73325 17.8369 10.1654 17.9679L13.2523 18.8961C13.6003 19.0048 13.9679 19.0286 14.3262 18.9656C14.6846 18.9027 15.0239 18.7545 15.3178 18.533C15.6118 18.3114 15.8523 18.0225 16.0206 17.6885C16.1889 17.3546 16.2806 16.9848 16.2881 16.6081L16.3902 13.2821C16.4008 12.817 16.5368 12.3642 16.7829 11.9751L18.5895 9.21898C18.793 8.90846 18.9252 8.55385 18.9763 8.18221C19.0273 7.81058 18.9958 7.43184 18.884 7.07478C18.7722 6.71773 18.5832 6.39184 18.3314 6.1221C18.0795 5.85236 17.7715 5.64587 17.4308 5.51839L14.4069 4.39068C13.9824 4.22992 13.6107 3.94757 13.3348 3.57645Z" fill="#FD5D69"/>
</svg>
