<svg width="17" height="24" viewBox="0 0 17 24" fill="none" xmlns="http://www.w3.org/2000/svg">
<path d="M8.47775 8.44248C10.5329 8.44248 12.199 6.77642 12.199 4.72124C12.199 2.66606 10.5329 1 8.47775 1C6.42257 1 4.75651 2.66606 4.75651 4.72124C4.75651 6.77642 6.42257 8.44248 8.47775 8.44248Z" stroke="#FFFDF9" stroke-width="1.65388" stroke-linecap="round" stroke-linejoin="round"/>
<path d="M15.3281 19.3118C13.5419 23.3241 8.45463 22.9934 8.45463 22.9934C8.45463 22.9934 3.36397 23.3109 1.58108 19.3118C1.23602 18.5425 1.05762 17.7088 1.05762 16.8657C1.05762 16.0225 1.23602 15.189 1.58108 14.4197C3.36397 10.4073 8.45463 10.7381 8.45463 10.7381C8.45463 10.7381 13.5419 10.4206 15.3281 14.4197C15.6732 15.189 15.8516 16.0225 15.8516 16.8657C15.8516 17.7088 15.6732 18.5425 15.3281 19.3118Z" stroke="#FFFDF9" stroke-width="1.65388" stroke-linecap="round" stroke-linejoin="round"/>
</svg>
