<svg width="28" height="28" viewBox="0 0 28 28" fill="none" xmlns="http://www.w3.org/2000/svg">
<line x1="0.962617" y1="27.095" x2="26.1526" y2="27.095" stroke="white" stroke-width="1.81" stroke-linecap="round"/>
<path d="M13.4778 8.44248C15.5329 8.44248 17.199 6.77642 17.199 4.72124C17.199 2.66606 15.5329 1 13.4778 1C11.4226 1 9.75651 2.66606 9.75651 4.72124C9.75651 6.77642 11.4226 8.44248 13.4778 8.44248Z" stroke="#FFFDF9" stroke-width="1.65388" stroke-linecap="round" stroke-linejoin="round"/>
<path d="M20.3281 19.3118C18.5419 23.3241 13.4546 22.9934 13.4546 22.9934C13.4546 22.9934 8.36397 23.3109 6.58108 19.3118C6.23602 18.5425 6.05762 17.7088 6.05762 16.8657C6.05762 16.0225 6.23602 15.189 6.58108 14.4197C8.36397 10.4073 13.4546 10.7381 13.4546 10.7381C13.4546 10.7381 18.5419 10.4206 20.3281 14.4197C20.6732 15.189 20.8516 16.0225 20.8516 16.8657C20.8516 17.7088 20.6732 18.5425 20.3281 19.3118Z" stroke="#FFFDF9" stroke-width="1.65388" stroke-linecap="round" stroke-linejoin="round"/>
</svg>
