<svg width="36" height="35" viewBox="0 0 36 35" fill="none" xmlns="http://www.w3.org/2000/svg">
<rect width="35.1528" height="35" rx="17.3011" fill="#FD5D69"/>
<path d="M14.9171 18.8351L16.8729 20.7796L21.4156 15.5914M26.4113 13.7953C26.8014 17.7929 26.44 25.3225 18.6682 27.1813C17.998 27.3412 17.2994 27.3412 16.6292 27.1813C8.86883 25.3225 8.50748 17.8014 8.88604 13.7953C8.97446 13.0379 9.28522 12.3231 9.7795 11.7406C10.2738 11.1581 10.9296 10.7336 11.6649 10.5202L17.1138 8.82704C17.4532 8.72432 17.8155 8.72432 18.1549 8.82704L23.6037 10.5202C24.3449 10.7278 25.0075 11.1499 25.5074 11.733C26.0073 12.3161 26.3219 13.0339 26.4113 13.7953Z" stroke="#FFFDF9" stroke-width="1.42768" stroke-linecap="round" stroke-linejoin="round"/>
</svg>
