<svg width="18" height="24" viewBox="0 0 18 24" fill="none" xmlns="http://www.w3.org/2000/svg">
<path d="M3.45946 7.38124C1.17872 11.9649 -0.192867 19.9475 5.47416 22.3423C6.67846 22.8449 7.97045 23.1036 9.2754 23.1036C10.5804 23.1036 11.8723 22.8449 13.0766 22.3423C18.0183 20.2865 18.0183 12.7917 14.4578 7.45409M6.7507 10.4223V19.0036M11.5118 10.4223V19.0036M5.64519 2.96865C5.64519 1.76809 7.1213 0.786133 8.93006 0.786133H9.33553C11.1443 0.786133 12.6205 1.76809 12.6205 2.96865M2.49014 3.20306H15.7723C16.4966 3.20306 17.0838 3.7902 17.0838 4.51449V6.06983C17.0838 6.79411 16.4966 7.38126 15.7723 7.38126H2.49014C1.76586 7.38126 1.17871 6.79411 1.17871 6.06983V4.51449C1.17871 3.7902 1.76586 3.20306 2.49014 3.20306Z" stroke="#FD5D69" stroke-width="1.54522" stroke-linecap="round" stroke-linejoin="round"/>
</svg>
