<svg width="36" height="35" viewBox="0 0 36 35" fill="none" xmlns="http://www.w3.org/2000/svg">
<rect width="35.1528" height="35" rx="17.3011" fill="#FD5D69"/>
<path d="M26.4994 20.0127C26.0547 21.1327 25.3835 22.15 24.5273 23.0017C23.1165 24.406 21.2695 25.295 19.2863 25.5242C17.3032 25.7534 15.3003 25.3094 13.603 24.2643C13.4981 24.1966 13.3744 24.1633 13.2495 24.1692C13.1245 24.1751 13.0045 24.2199 12.9066 24.2973C12.0841 24.9566 9.95826 26.5391 9.22865 25.8138C8.49904 25.0885 10.0644 22.9456 10.7277 22.1214C10.803 22.0239 10.846 21.9056 10.8508 21.7828C10.8555 21.6599 10.8218 21.5387 10.7542 21.4357C9.64459 19.6625 9.2061 17.5546 9.51722 15.4893C9.82833 13.4241 10.8687 11.5363 12.4522 10.164C14.0676 8.7685 16.1357 8 18.2758 8C20.416 8 22.4841 8.7685 24.0995 10.164C25.0105 10.9575 25.7479 11.9284 26.2663 13.0167C26.7846 14.1049 27.0727 15.2873 27.1128 16.4907C27.1529 17.694 26.9441 18.8928 26.4994 20.0127Z" stroke="#FFFDF9" stroke-width="1.43" stroke-linecap="round" stroke-linejoin="round"/>
</svg>
